<svg width="720" height="220" viewBox="0 0 720 220" fill="none" xmlns="http://www.w3.org/2000/svg">
  <rect x="28" y="26" width="168" height="168" rx="42" fill="#0E1720"/>
  <rect x="37" y="35" width="150" height="150" rx="33" stroke="#E6F7FF" stroke-opacity="0.1" stroke-width="2"/>
  <path d="M72 133V89C72 83.4772 76.4772 79 82 79H88C93.5228 79 98 83.4772 98 89V133C98 138.523 93.5228 143 88 143H82C76.4772 143 72 138.523 72 133Z" fill="#21B6E8"/>
  <path d="M104 149V69C104 63.4772 108.477 59 114 59H120C125.523 59 130 63.4772 130 69V149C130 154.523 125.523 159 120 159H114C108.477 159 104 154.523 104 149Z" fill="#EAF8FF"/>
  <path d="M136 118V98C136 92.4772 140.477 88 146 88H152C157.523 88 162 92.4772 162 98V118C162 123.523 157.523 128 152 128H146C140.477 128 136 123.523 136 118Z" fill="#34D399"/>
  <path d="M68 159H166" stroke="#E6F7FF" stroke-opacity="0.22" stroke-width="10" stroke-linecap="round"/>
  <circle cx="167" cy="75" r="13" fill="#F5B84B"/>
  <circle cx="167" cy="75" r="5.5" fill="#0E1720"/>
  <text x="238" y="83" fill="#21B6E8" font-family="'IBM Plex Sans', 'Segoe UI', sans-serif" font-size="24" font-weight="650" letter-spacing="6">SDM</text>
  <text x="238" y="132" fill="#F5FAFC" font-family="'IBM Plex Sans', 'Segoe UI', sans-serif" font-size="54" font-weight="720" letter-spacing="-1">ClickHouse</text>
  <text x="240" y="165" fill="#9CB2C3" font-family="'IBM Plex Sans', 'Segoe UI', sans-serif" font-size="19" font-weight="500">Desktop SQL workbench for ClickHouse</text>
</svg>
