<svg width="256" height="256" viewBox="0 0 256 256" fill="none" xmlns="http://www.w3.org/2000/svg">
  <rect x="18" y="18" width="220" height="220" rx="54" fill="#0E1720"/>
  <rect x="29" y="29" width="198" height="198" rx="43" stroke="#E6F7FF" stroke-opacity="0.1" stroke-width="2"/>
  <path d="M74 159V101C74 94.3726 79.3726 89 86 89H94C100.627 89 106 94.3726 106 101V159C106 165.627 100.627 171 94 171H86C79.3726 171 74 165.627 74 159Z" fill="#21B6E8"/>
  <path d="M112 179V77C112 70.3726 117.373 65 124 65H132C138.627 65 144 70.3726 144 77V179C144 185.627 138.627 191 132 191H124C117.373 191 112 185.627 112 179Z" fill="#EAF8FF"/>
  <path d="M150 139V113C150 106.373 155.373 101 162 101H170C176.627 101 182 106.373 182 113V139C182 145.627 176.627 151 170 151H162C155.373 151 150 145.627 150 139Z" fill="#34D399"/>
  <path d="M68 191H188" stroke="#E6F7FF" stroke-opacity="0.22" stroke-width="12" stroke-linecap="round"/>
  <circle cx="188" cy="84" r="17" fill="#F5B84B"/>
  <circle cx="188" cy="84" r="7" fill="#0E1720"/>
</svg>
